<svg width="100" height="100" viewBox="0 0 100 100" fill="none" xmlns="http://www.w3.org/2000/svg">
<path d="M89 88H87.1V11C87.1 10.6 86.9 10.3 86.6 10.1C86.3 9.89995 85.9 9.89995 85.6 10.1L53.4 29.2C53.1 29.4 52.9 29.7 52.9 30.1V88H47.2V11C47.2 10.4 46.8 9.99995 46.2 9.99995H13.9C13.3 9.99995 12.9 10.4 12.9 11V88H11C10.4 88 10 88.4 10 89C10 89.6 10.4 90 11 90H89C89.6 90 90 89.6 90 89C90 88.4 89.6 88 89 88ZM54.9 30.6L85.2 12.7V88H78.3V65.0999C78.3 64.5 77.9 64.0999 77.3 64.0999H62.7C62.1 64.0999 61.7 64.5 61.7 65.0999V88H54.8V30.6H54.9ZM76.3 88H63.7V66.0999H76.2V88H76.3ZM14.9 12H45.2V88H38.3V65.0999C38.3 64.5 37.9 64.0999 37.3 64.0999H22.7C22.1 64.0999 21.7 64.5 21.7 65.0999V88H14.8V12H14.9ZM36.3 88H23.7V66.0999H36.2V88H36.3Z" fill="#232B31"/>
<path d="M20 35.8999H27.1C27.7 35.8999 28.1 35.4999 28.1 34.8999V18.3999C28.1 17.7999 27.7 17.3999 27.1 17.3999H20C19.4 17.3999 19 17.7999 19 18.3999V34.8999C19 35.4999 19.5 35.8999 20 35.8999ZM21 19.3999H26.1V33.8999H21V19.3999Z" fill="black"/>
<path d="M32.9004 35.8999H40.0004C40.6004 35.8999 41.0004 35.4999 41.0004 34.8999V18.3999C41.0004 17.7999 40.6004 17.3999 40.0004 17.3999H32.9004C32.3004 17.3999 31.9004 17.7999 31.9004 18.3999V34.8999C31.9004 35.4999 32.3004 35.8999 32.9004 35.8999ZM33.9004 19.3999H39.0004V33.8999H33.9004V19.3999Z" fill="black"/>
<path d="M27.1 59.1998C27.7 59.1998 28.1 58.7998 28.1 58.1998V41.7998C28.1 41.1998 27.7 40.7998 27.1 40.7998H20C19.4 40.7998 19 41.1998 19 41.7998V58.2998C19 58.8998 19.4 59.2998 20 59.2998H27.1V59.1998ZM21 42.7998H26.1V57.2998H21V42.7998Z" fill="black"/>
<path d="M32.9004 59.1998H40.0004C40.6004 59.1998 41.0004 58.7998 41.0004 58.1998V41.7998C41.0004 41.1998 40.6004 40.7998 40.0004 40.7998H32.9004C32.3004 40.7998 31.9004 41.1998 31.9004 41.7998V58.2998C31.9004 58.7998 32.3004 59.1998 32.9004 59.1998ZM33.9004 42.7998H39.0004V57.2998H33.9004V42.7998Z" fill="black"/>
<path d="M67.1 59.1998C67.7 59.1998 68.1 58.7998 68.1 58.1998V41.7998C68.1 41.1998 67.7 40.7998 67.1 40.7998H60C59.4 40.7998 59 41.1998 59 41.7998V58.2998C59 58.8998 59.4 59.2998 60 59.2998H67.1V59.1998ZM61 42.7998H66.1V57.2998H61V42.7998Z" fill="black"/>
<path d="M72.9004 59.1998H80.0004C80.6004 59.1998 81.0004 58.7998 81.0004 58.1998V41.7998C81.0004 41.1998 80.6004 40.7998 80.0004 40.7998H72.9004C72.3004 40.7998 71.9004 41.1998 71.9004 41.7998V58.2998C71.9004 58.7998 72.3004 59.1998 72.9004 59.1998ZM73.9004 42.7998H79.0004V57.2998H73.9004V42.7998Z" fill="black"/>
</svg>
