<?xml version="1.0" encoding="UTF-8"?>
<svg version="1.1" xmlns="http://www.w3.org/2000/svg" width="125" height="125">
<path d="M0 0 C0.78580444 -0.00540298 1.57160889 -0.01080597 2.38122559 -0.01637268 C4.97515682 -0.02886654 7.56797966 -0.01236681 10.16186523 0.00561523 C11.96500202 0.00546028 13.76813914 0.00397183 15.5712738 0.00120544 C19.34828432 -0.00017879 23.12491521 0.01238464 26.90185547 0.03515625 C31.74661395 0.0635614 36.59074258 0.06079841 41.43554783 0.04806614 C45.15786636 0.04111672 48.8800389 0.04888944 52.60233879 0.06132317 C54.38894021 0.06584341 56.17555726 0.06616947 57.96216011 0.06225777 C60.45687209 0.05935221 62.95071079 0.07581959 65.4453125 0.09765625 C66.55582222 0.09090378 66.55582222 0.09090378 67.68876648 0.08401489 C70.53921129 0.12554016 72.65937269 0.19389167 75.118927 1.71237183 C76.50990973 4.1078102 76.51654712 5.76720781 76.49511719 8.53515625 C76.49577682 9.56747879 76.49643646 10.59980133 76.49711609 11.66340637 C76.47812004 13.34873726 76.47812004 13.34873726 76.45874023 15.06811523 C76.46211728 17.48315655 76.46689261 19.89819622 76.47290039 22.31323242 C76.47171204 23.58034058 76.47052368 24.84744873 76.46929932 26.1529541 C76.47595001 48.58399009 77.45951384 69.88212852 82.73657227 91.7175293 C83.18766536 94.69798445 83.12100582 96.64901477 82.15795898 99.50170898 C78.20967563 102.13389789 74.81861135 101.7895151 70.23608398 101.77636719 C69.32362915 101.78147812 68.41117432 101.78658905 67.47106934 101.79185486 C64.44996615 101.80577392 61.42909046 101.80479252 58.40795898 101.80249023 C56.31192947 101.80637554 54.21590074 101.81070986 52.11987305 101.81547546 C47.72499032 101.8229424 43.33018792 101.8226427 38.93530273 101.81738281 C33.29579138 101.81158378 27.65660798 101.82852748 22.01715088 101.85172749 C17.68837554 101.86643833 13.3596797 101.86734021 9.03088379 101.86421776 C6.95120595 101.86473218 4.8715238 101.86999247 2.79187012 101.88002968 C-0.11236072 101.89232712 -3.01594599 101.88564301 -5.92016602 101.87402344 C-6.78363647 101.88166718 -7.64710693 101.88931091 -8.53674316 101.89718628 C-14.41208515 101.84506728 -14.41208515 101.84506728 -16.57293701 100.1194334 C-19.24105751 96.71838536 -17.64982164 91.88440926 -17.16795349 87.84136963 C-16.81516261 85.30875424 -16.3643227 82.80766781 -15.89306641 80.29443359 C-12.86538238 63.85063809 -12.30042546 47.87814336 -12.34204102 31.18920898 C-12.35408321 26.2135654 -12.34056575 21.23897731 -12.31079102 16.26342773 C-12.3221106 15.1375676 -12.33343018 14.01170746 -12.34509277 12.85173035 C-12.33828491 11.81156265 -12.33147705 10.77139496 -12.32446289 9.69970703 C-12.32764526 8.78916061 -12.33082764 7.8786142 -12.33410645 6.94047546 C-10.97047676 0.18207673 -5.94788399 -0.07788534 0 0 Z M-8.84204102 5.50170898 C-9.13458663 7.84735336 -9.13458663 7.84735336 -9.0690918 10.59399414 C-9.0688501 11.66979736 -9.0686084 12.74560059 -9.06835938 13.85400391 C-9.05812744 14.98813721 -9.04789551 16.12227051 -9.03735352 17.29077148 C-9.03533936 18.33064209 -9.0333252 19.3705127 -9.03125 20.44189453 C-9.02076362 24.33687737 -8.99284118 28.23179748 -8.96704102 32.12670898 C-8.92579102 40.83045898 -8.88454102 49.53420898 -8.84204102 58.50170898 C18.21795898 58.50170898 45.27795898 58.50170898 73.15795898 58.50170898 C73.19920898 49.79795898 73.24045898 41.09420898 73.28295898 32.12670898 C73.30116699 29.37794434 73.319375 26.62917969 73.33813477 23.79711914 C73.34397373 21.62833858 73.34907069 19.45955584 73.35327148 17.29077148 C73.36350342 16.15663818 73.37373535 15.02250488 73.38427734 13.85400391 C73.38451904 12.77820068 73.38476074 11.70239746 73.38500977 10.59399414 C73.38945099 9.65689606 73.39389221 8.71979797 73.39846802 7.75430298 C73.37489129 5.29994828 73.37489129 5.29994828 71.15795898 3.50170898 C68.66938986 3.30347527 66.29211762 3.2289021 63.80249023 3.24291992 C62.66570328 3.23766296 62.66570328 3.23766296 61.50595093 3.2322998 C58.99402785 3.22347769 56.48238507 3.22933324 53.97045898 3.23608398 C52.22932887 3.23473747 50.48819913 3.23279705 48.74707031 3.23028564 C45.09525987 3.22733373 41.44354715 3.23163415 37.79174805 3.2409668 C33.10388917 3.25236139 28.41625928 3.24580228 23.72840881 3.23382187 C20.13226588 3.22660506 16.53617751 3.22889037 12.94003296 3.23407745 C11.21121188 3.23541445 9.4823859 3.2337645 7.75357056 3.22911835 C5.34005558 3.22405602 2.92691475 3.23175899 0.51342773 3.24291992 C-0.20559723 3.23887146 -0.92462219 3.234823 -1.66543579 3.23065186 C-5.70200467 3.15206299 -5.70200467 3.15206299 -8.84204102 5.50170898 Z M-8.84204102 61.50170898 C-11.11835805 73.45237343 -13.23419997 85.44290112 -14.84204102 97.50170898 C16.17795898 97.50170898 47.19795898 97.50170898 79.15795898 97.50170898 C78.42155834 88.91625888 78.42155834 88.91625888 77.22045898 80.46655273 C77.04772461 79.47333008 76.87499023 78.48010742 76.69702148 77.45678711 C76.51913086 76.46098633 76.34124023 75.46518555 76.15795898 74.43920898 C75.98006836 73.40860352 75.80217773 72.37799805 75.61889648 71.31616211 C74.86466295 66.26018114 74.86466295 66.26018114 73.15795898 61.50170898 C46.09795898 61.50170898 19.03795898 61.50170898 -8.84204102 61.50170898 Z " fill="#000000" transform="translate(29.842041015625,12.498291015625)"/>
<path d="M0 0 C25.08 0 50.16 0 76 0 C78 11 78 11 79 24 C51.94 24 24.88 24 -3 24 C-1 4 -1 4 0 0 Z M3 3 C2.67 5.31 2.34 7.62 2 10 C7.28 10 12.56 10 18 10 C18 7.69 18 5.38 18 3 C13.05 3 8.1 3 3 3 Z M22 3 C21.67 5.31 21.34 7.62 21 10 C26.28 10 31.56 10 37 10 C37 7.69 37 5.38 37 3 C32.05 3 27.1 3 22 3 Z M40 3 C40 5.31 40 7.62 40 10 C44.62 10 49.24 10 54 10 C54 7.69 54 5.38 54 3 C49.38 3 44.76 3 40 3 Z M57 3 C57.33 5.31 57.66 7.62 58 10 C63.28 10 68.56 10 74 10 C73.67 7.69 73.34 5.38 73 3 C67.72 3 62.44 3 57 3 Z M2 14 C1.67 16.31 1.34 18.62 1 21 C6.28 21 11.56 21 17 21 C17 18.69 17 16.38 17 14 C12.05 14 7.1 14 2 14 Z M21 14 C20.67 16.31 20.34 18.62 20 21 C25.61 21 31.22 21 37 21 C37 18.69 37 16.38 37 14 C31.72 14 26.44 14 21 14 Z M40 14 C40 16.31 40 18.62 40 21 C45.28 21 50.56 21 56 21 C55.67 18.69 55.34 16.38 55 14 C50.05 14 45.1 14 40 14 Z M59 14 C59 16.31 59 18.62 59 21 C64.28 21 69.56 21 75 21 C75 18.69 75 16.38 75 14 C69.72 14 64.44 14 59 14 Z " fill="#000000" transform="translate(24,79)"/>
<path d="M0 0 C0.69771011 0.00359528 1.39542023 0.00719055 2.11427307 0.01089478 C3.2117688 0.01067574 3.2117688 0.01067574 4.33143616 0.01045227 C6.76094989 0.0111515 9.19038789 0.01894432 11.61988831 0.02676392 C13.29997719 0.02862806 14.98006662 0.03005198 16.66015625 0.03105164 C21.09071849 0.03487709 25.52124815 0.04470761 29.95179749 0.05575562 C35.2631386 0.06776362 40.57449058 0.07237184 45.88584137 0.07820892 C53.96257762 0.08791936 62.03924233 0.1070757 70.11598206 0.12442017 C70.11598206 15.63442017 70.11598206 31.14442017 70.11598206 47.12442017 C45.03598206 47.12442017 19.95598206 47.12442017 -5.88401794 47.12442017 C-5.90464294 39.55504517 -5.92526794 31.98567017 -5.94651794 24.18692017 C-5.95562195 21.79450073 -5.96472595 19.4020813 -5.97410583 16.93716431 C-5.97702487 15.05296892 -5.97957345 13.1687729 -5.98167419 11.28457642 C-5.98679016 10.29646973 -5.99190613 9.30836304 -5.99717712 8.29031372 C-5.99729797 7.35650879 -5.99741882 6.42270386 -5.99754333 5.46060181 C-5.99976395 4.64563736 -6.00198456 3.83067291 -6.00427246 2.99101257 C-5.75636095 -0.85707358 -3.26359024 0.00709374 0 0 Z M-2.88401794 4.12442017 C-2.88401794 17.32442017 -2.88401794 30.52442017 -2.88401794 44.12442017 C20.21598206 44.12442017 43.31598206 44.12442017 67.11598206 44.12442017 C67.11598206 30.92442017 67.11598206 17.72442017 67.11598206 4.12442017 C44.01598206 4.12442017 20.91598206 4.12442017 -2.88401794 4.12442017 Z " fill="#000000" transform="translate(29.884017944335938,19.875579833984375)"/>
<path d="M0 0 C2.27261663 0.95558278 4.09385838 2.11713973 6.09570312 3.55786133 C7.22685547 4.36513672 7.22685547 4.36513672 8.38085938 5.1887207 C9.54681641 6.03466797 9.54681641 6.03466797 10.73632812 6.89770508 C11.92548828 7.74945313 11.92548828 7.74945313 13.13867188 8.6184082 C15.09187838 10.01859841 17.04084314 11.42431602 18.98632812 12.83520508 C18.61132812 14.77270508 18.61132812 14.77270508 17.98632812 16.83520508 C16.99632813 17.33020508 16.99632813 17.33020508 15.98632812 17.83520508 C15.76121682 19.86120683 15.54224033 21.88979784 15.42773438 23.92504883 C14.98632812 25.83520508 14.98632812 25.83520508 11.98632812 27.83520508 C11.25026314 31.4029006 11.25026314 31.4029006 10.98632812 34.83520508 C9.66632813 34.83520508 8.34632812 34.83520508 6.98632812 34.83520508 C6.98632812 33.84520508 6.98632812 32.85520508 6.98632812 31.83520508 C6.07882813 32.51583008 5.17132813 33.19645508 4.23632812 33.89770508 C0.98632812 35.83520508 0.98632812 35.83520508 -0.86523438 35.70239258 C-3.80882224 34.51425347 -6.09623797 32.7925379 -8.63867188 30.89770508 C-10.08113281 29.83229492 -10.08113281 29.83229492 -11.55273438 28.74536133 C-14.01367187 26.83520508 -14.01367187 26.83520508 -16.01367188 24.83520508 C-16.15804687 23.68020508 -16.30242188 22.52520508 -16.45117188 21.33520508 C-16.72960938 19.60270508 -16.72960938 19.60270508 -17.01367188 17.83520508 C-18.00367188 17.17520508 -18.99367187 16.51520508 -20.01367188 15.83520508 C-20.01367188 14.84520508 -20.01367188 13.85520508 -20.01367188 12.83520508 C-17.37033074 10.25685081 -14.2663254 8.2266681 -11.26367188 6.08520508 C-10.43867187 5.47032227 -9.61367188 4.85543945 -8.76367188 4.22192383 C-7.96445312 3.64571289 -7.16523437 3.06950195 -6.34179688 2.47583008 C-5.60864258 1.94505859 -4.87548828 1.41428711 -4.12011719 0.86743164 C-2.01367188 -0.16479492 -2.01367188 -0.16479492 0 0 Z M-8.07617188 8.83520508 C-8.73939453 9.3121582 -9.40261719 9.78911133 -10.0859375 10.28051758 C-11.73002683 11.46331566 -13.37204234 12.64899535 -15.01367188 13.83520508 C-12.10833708 16.79612019 -9.2186701 19.65077307 -5.95117188 22.21020508 C-5.30019531 22.73356445 -4.64921875 23.25692383 -3.97851562 23.79614258 C-2.07063653 25.03629282 -2.07063653 25.03629282 0.09179688 24.62817383 C2.65543475 23.55514602 4.14187617 21.87727689 5.98632812 19.83520508 C5.48101562 19.4974707 4.97570312 19.15973633 4.45507812 18.81176758 C3.80539063 18.36575195 3.15570313 17.91973633 2.48632812 17.46020508 C1.83664063 17.0193457 1.18695313 16.57848633 0.51757812 16.12426758 C0.01226562 15.69887695 -0.49304688 15.27348633 -1.01367188 14.83520508 C-1.01367188 14.17520508 -1.01367188 13.51520508 -1.01367188 12.83520508 C2.77734003 14.28470963 6.37379192 15.98693074 9.98632812 17.83520508 C11.30632812 16.51520508 12.62632813 15.19520508 13.98632812 13.83520508 C11.67583753 12.16568929 9.3630823 10.49948893 7.04882812 8.83520508 C6.38947266 8.35825195 5.73011719 7.88129883 5.05078125 7.38989258 C-1.39780246 2.76014017 -1.97827678 4.42421547 -8.07617188 8.83520508 Z M-12.01367188 20.83520508 C-11.69644112 23.88602004 -11.12465407 24.74186621 -8.72851562 26.75708008 C-7.81199219 27.36036133 -6.89546875 27.96364258 -5.95117188 28.58520508 C-5.03207031 29.19879883 -4.11296875 29.81239258 -3.16601562 30.44458008 C-2.45574219 30.90348633 -1.74546875 31.36239258 -1.01367188 31.83520508 C1.91479489 30.40788514 4.50049876 28.96591596 6.98632812 26.83520508 C6.98632812 26.17520508 6.98632812 25.51520508 6.98632812 24.83520508 C6.42945312 25.14458008 5.87257813 25.45395508 5.29882812 25.77270508 C2.72718432 26.95427115 0.81672645 27.60177017 -2.01367188 27.83520508 C-4.43554688 26.40161133 -4.43554688 26.40161133 -6.76367188 24.39770508 C-9.10771964 22.01097173 -9.10771964 22.01097173 -12.01367188 20.83520508 Z M10.98632812 20.83520508 C11.98632812 22.83520508 11.98632812 22.83520508 11.98632812 22.83520508 Z " fill="#000000" transform="translate(63.013671875,26.164794921875)"/>
</svg>
