<svg width="100" height="100" viewBox="0 0 100 100" fill="none" xmlns="http://www.w3.org/2000/svg">
<path d="M72.1218 27.4675L70.1459 28.8504C67.8995 30.4246 65.0463 30.7322 62.5144 29.6717L58.6677 28.0593C55.8409 26.8732 52.7296 26.9565 50.0069 28.1928C47.2618 26.9493 44.1215 26.8894 41.3319 28.0593L37.4859 29.6717C34.9546 30.7322 32.1024 30.4246 29.8537 28.8504L27.8781 27.4675C27.4263 27.1511 26.8023 27.2605 26.4856 27.7136L16.4072 42.1061C16.2552 42.3229 16.1956 42.5915 16.2419 42.8532C16.2878 43.1139 16.4359 43.3464 16.653 43.4987L22.8939 47.8685L21.7331 49.4949C21.0342 50.4734 20.7585 51.6658 20.9567 52.8523C21.1549 54.0388 21.8027 55.0769 22.7819 55.7741L23.1578 56.0427C23.9492 56.6081 24.8623 56.8796 25.7678 56.8796C25.9319 56.8796 26.0953 56.8689 26.2581 56.851C26.1839 57.3239 26.1656 57.8076 26.247 58.2936C26.4453 59.4801 27.093 60.5182 28.0722 61.2155L28.4482 61.484C29.2395 62.0494 30.1526 62.3209 31.0582 62.3209C31.4758 62.3209 31.8899 62.2561 32.2912 62.1429C32.3007 62.306 32.2974 62.4684 32.3248 62.6315C32.523 63.818 33.1708 64.8561 34.1499 65.5533L34.5259 65.8219C35.3172 66.3873 36.2303 66.6588 37.1359 66.6588C37.8739 66.6588 38.6037 66.4739 39.2599 66.1253C39.5053 67.2004 40.1102 68.1432 41.0154 68.7887L41.3914 69.0572C42.1824 69.6227 43.0955 69.8942 44.0001 69.8942C45.407 69.8942 46.794 69.2379 47.672 68.0084L48.9998 66.1481L51.9725 68.2291C52.7778 68.7926 53.7153 69.0866 54.6775 69.0866C54.9539 69.0866 55.2322 69.0622 55.5096 69.0133C56.7547 68.7936 57.84 68.1022 58.5649 67.0661C59.1609 66.2158 59.4363 65.2158 59.4008 64.196C60.0128 64.4672 60.6609 64.6091 61.3074 64.6091C62.8009 64.6091 64.2722 63.905 65.1922 62.5915C65.8344 61.6742 66.0837 60.6077 66.0144 59.5687C66.4734 59.7152 66.9523 59.7911 67.4376 59.7911C67.714 59.7911 67.9923 59.7667 68.2696 59.7178C69.5147 59.4981 70.6001 58.8067 71.325 57.7706C71.9093 56.9369 72.1876 55.9597 72.1658 54.9607C72.8468 55.3099 73.5828 55.4854 74.3149 55.4854C75.8084 55.4854 77.2794 54.7813 78.1986 53.4688C78.9242 52.4327 79.2029 51.1768 78.9835 49.9317C78.8409 49.1215 78.4809 48.3923 77.9737 47.7729L83.3966 43.463C83.8106 43.1339 83.8972 42.5392 83.5938 42.1066L73.5155 27.7141C73.1975 27.2606 72.5744 27.1512 72.1213 27.4677L72.1218 27.4675ZM24.3193 54.4159L23.943 54.1463C23.3991 53.7586 23.0387 53.1825 22.9287 52.5233C22.8183 51.8641 22.9716 51.201 23.3603 50.657L25.3613 47.8533C25.7497 47.3083 26.3265 46.948 26.9856 46.8386C27.6448 46.7273 28.3072 46.8816 28.8519 47.2693L29.2279 47.5378C30.3506 48.3392 30.6123 49.905 29.8115 51.0281L27.8069 53.8363C27.4189 54.378 26.8431 54.7373 26.1855 54.8474C25.5244 54.9558 24.8639 54.8035 24.3193 54.4158L24.3193 54.4159ZM29.6096 59.8573L29.2333 59.5878C28.6894 59.2001 28.329 58.6229 28.219 57.9638C28.1087 57.3046 28.262 56.6415 28.6506 56.0975L29.4335 55.0008C29.4348 54.9989 29.4368 54.9973 29.4381 54.995L31.4391 52.1912C31.4394 52.1909 31.4394 52.1906 31.4397 52.1903L32.2268 51.0878C32.6152 50.5438 33.1917 50.1834 33.8512 50.0731C34.5094 49.9666 35.1724 50.117 35.719 50.5067L36.0934 50.7723C37.2164 51.5741 37.4781 53.1405 36.6764 54.2636L33.1002 59.2743C32.2984 60.3974 30.7327 60.6571 29.6096 59.8573ZM35.6871 64.1952L35.3108 63.9257C34.7669 63.538 34.4065 62.9618 34.2965 62.3026C34.1862 61.6434 34.3395 60.9803 34.7281 60.4363L38.3043 55.4256C38.6927 54.8816 39.2691 54.5213 39.9286 54.4109C40.5888 54.3055 41.2512 54.4549 41.7949 54.8435L42.1712 55.1121C42.7145 55.4998 43.0752 56.0759 43.1849 56.7352C43.2952 57.3953 43.1419 58.0574 42.7539 58.6014L41.9664 59.7049L40.9658 61.1069L39.1777 63.6124C38.3759 64.7352 36.8102 64.9949 35.6871 64.1951L35.6871 64.1952ZM46.043 66.8465C45.6546 67.3905 45.0778 67.7509 44.418 67.8612C43.7568 67.9725 43.0957 67.8182 42.5521 67.4305L42.1761 67.162C41.6315 66.7733 41.2712 66.1961 41.1614 65.537C41.0511 64.8778 41.2044 64.2147 41.5931 63.6707L43.5944 60.8667C43.9827 60.3231 44.5592 59.9624 45.2187 59.8521C45.8792 59.7466 46.542 59.896 47.0859 60.2847L47.4609 60.5513C48.584 61.353 48.8456 62.9194 48.0439 64.0425L47.9804 64.1314C47.9654 64.15 47.944 64.1594 47.93 64.1792C47.9173 64.1975 47.916 64.219 47.9046 64.2375L46.043 66.8465ZM76.5596 52.3215C76.1413 52.9192 75.5147 53.3186 74.7953 53.4455C74.0772 53.5735 73.352 53.4114 72.7526 52.9924L63.5251 46.5305C63.5248 46.5302 63.5245 46.5302 63.5245 46.5302L62.4148 45.7532C61.9623 45.4377 61.3397 45.5461 61.0219 45.9992C60.7055 46.4514 60.8152 47.0744 61.2677 47.3918L69.0158 52.8176C69.6137 53.2365 70.0128 53.8625 70.1398 54.5812C70.2661 55.301 70.1056 56.0256 69.6866 56.6242C69.2683 57.2219 68.641 57.6213 67.9223 57.7482C67.2022 57.8742 66.478 57.7141 65.8796 57.2951L64.0304 56.0002C64.0297 55.9999 64.0297 55.9996 64.0291 55.9992L58.1316 51.8703C57.6791 51.5539 57.0564 51.6643 56.7387 52.1164C56.4222 52.5686 56.5319 53.1916 56.9844 53.509L62.8832 57.6389C64.1169 58.5035 64.4177 60.2105 63.5538 61.4456C62.6878 62.679 60.9805 62.9797 59.7467 62.1165L57.1465 60.2955L54.9597 58.7636C54.9593 58.7632 54.959 58.7632 54.959 58.7632L53.8493 57.9862C53.3962 57.6698 52.7735 57.7792 52.4564 58.2323C52.14 58.6845 52.2497 59.3075 52.7022 59.6249L56.2579 62.1148C56.8549 62.5337 57.2529 63.159 57.3799 63.8778C57.5062 64.5965 57.3458 65.3211 56.9268 65.9198C56.5085 66.5175 55.8812 66.9169 55.1625 67.0438C54.4428 67.1717 53.7182 67.0096 53.1198 66.5907L50.0922 64.4712C50.9789 62.5473 50.4102 60.1997 48.6231 58.9237L48.2481 58.6571C47.3399 58.008 46.2487 57.7453 45.1458 57.8628C45.2223 57.3856 45.2405 56.897 45.1585 56.4061C44.9609 55.2196 44.3125 54.1816 43.3334 53.4833L42.9574 53.2157C41.9789 52.5155 40.7885 52.2431 39.6 52.4384C39.4323 52.4664 39.2754 52.5237 39.114 52.5693C39.0414 51.2493 38.4121 49.9703 37.2543 49.1435L36.8799 48.8779C35.9011 48.1787 34.71 47.9052 33.5225 48.1005C33.0313 48.1826 32.5749 48.359 32.1482 48.5872C31.9132 47.5455 31.3269 46.579 30.3914 45.9111L30.0154 45.6425C29.0366 44.9433 27.8429 44.6689 26.6573 44.8662C25.6566 45.0325 24.7751 45.5358 24.1006 46.2714L18.6198 42.4345L27.5506 29.6795L28.7069 30.4891C31.5194 32.4578 35.0891 32.8426 38.2594 31.5154L42.1061 29.9031C43.9136 29.1456 45.9049 29.0193 47.771 29.5072L40.3602 34.7214C39.3247 35.447 38.6336 36.532 38.414 37.7771C38.1942 39.0222 38.4726 40.2781 39.1975 41.3132C40.6952 43.4519 43.6542 43.9734 45.7902 42.4763L52.8254 37.5554C55.0452 36.0027 58.0341 35.9948 60.2574 37.532L75.8882 48.5136C75.8886 48.514 75.8889 48.5143 75.8892 48.5146C76.4872 48.9336 76.887 49.5595 77.0132 50.2793C77.1402 50.9984 76.9794 51.723 76.5601 52.3216L76.5596 52.3215ZM76.4255 46.4475L61.4005 35.8917C59.9504 34.8888 58.254 34.3868 56.5581 34.3868C54.8465 34.3868 53.1356 34.8975 51.6782 35.917L44.643 40.838C43.4057 41.7012 41.6997 41.3995 40.8348 40.1671C40.4165 39.5684 40.2557 38.8438 40.3823 38.1251C40.5092 37.4053 40.9087 36.7794 41.5086 36.3585L49.3843 30.8175C51.8901 29.0606 55.0711 28.7218 57.8943 29.9034L61.7416 31.5157C64.9093 32.8439 68.4795 32.4591 71.2925 30.4894L72.4494 29.6798L81.4144 42.4823L76.4255 46.4475Z" fill="#232B31"/>
<path d="M50 10C27.9442 10 10 26.0933 10 45.875C10 63.2692 23.7592 78.05 42.7767 81.1575L49.2044 89.6058C49.3932 89.8549 49.6878 90.0004 50.0003 90.0004C50.3128 90.0004 50.6074 89.8549 50.7962 89.6058L57.224 81.1575C76.2415 78.0501 90.0006 63.27 90.0006 45.875C90.0006 26.0933 72.0565 10 50.0006 10H50ZM56.5179 79.2442C56.2621 79.2832 56.0313 79.4209 55.8744 79.627L50 87.3487L44.1257 79.627C43.9688 79.4209 43.738 79.2832 43.4821 79.2442C25.2405 76.4317 11.9996 62.3975 11.9996 45.875C11.9996 27.1967 29.0463 12 49.9996 12C70.953 12 87.9996 27.1967 87.9996 45.875C87.9996 62.3975 74.7596 76.4317 56.5171 79.2442H56.5179Z" fill="#232B31"/>
</svg>
