<svg width="100" height="100" viewBox="0 0 100 100" fill="none" xmlns="http://www.w3.org/2000/svg">
<path d="M15.83 49.64H49V60C49 60.4 49.24 60.76 49.61 60.92C49.74 60.97 49.87 61 50 61C50.25 61 50.5 60.9 50.69 60.72L62.32 49.64H84.17C87.38 49.64 90 47.03 90 43.81V15.83C90 12.62 87.39 10 84.17 10H15.83C12.61 10 10 12.61 10 15.83V43.81C10 47.02 12.61 49.64 15.83 49.64ZM12 15.83C12 13.72 13.72 12 15.83 12H84.17C86.28 12 88 13.72 88 15.83V43.81C88 45.92 86.28 47.64 84.17 47.64H61.92C61.66 47.64 61.42 47.74 61.23 47.92L51 57.67V48.64C51 48.09 50.55 47.64 50 47.64H15.83C13.72 47.64 12 45.92 12 43.81V15.83Z" fill="#232B31"/>
<path d="M77.1797 76.5C79.7797 74.27 81.2797 71.07 81.2797 67.6C81.2797 61.08 75.9797 55.78 69.4597 55.78C62.9397 55.78 57.6397 61.08 57.6397 67.6C57.6397 71.07 59.1397 74.27 61.7297 76.5C56.6897 78.36 52.5297 81.93 49.9597 86.63C47.3997 81.99 43.1797 78.37 38.1897 76.51C40.7897 74.28 42.2897 71.08 42.2897 67.61C42.2897 61.09 36.9897 55.79 30.4697 55.79C23.9497 55.79 18.6497 61.09 18.6497 67.61C18.6497 71.08 20.1497 74.28 22.7397 76.51C17.0797 78.59 12.5397 82.84 10.0997 88.4C9.87966 88.91 10.0997 89.5 10.6097 89.72C11.1197 89.94 11.7097 89.72 11.9297 89.21C14.3897 83.59 19.2297 79.45 25.1897 77.84C25.5797 77.73 25.8597 77.41 25.9197 77.01C25.9797 76.61 25.7897 76.22 25.4397 76.01C22.4397 74.21 20.6397 71.07 20.6397 67.62C20.6397 62.21 25.0497 57.8 30.4597 57.8C35.8697 57.8 40.2797 62.21 40.2797 67.62C40.2797 71.07 38.4897 74.21 35.4797 76.01C35.1397 76.22 34.9497 76.61 34.9997 77.01C35.0597 77.41 35.3397 77.73 35.7297 77.84C41.6897 79.45 46.6797 83.78 49.0797 89.42C49.2697 89.86 49.7397 90.1 50.1997 90.01C50.6697 89.92 50.9997 89.51 50.9997 89.03C53.4897 83.51 58.2797 79.44 64.1797 77.84C64.5697 77.73 64.8497 77.41 64.9097 77.01C64.9697 76.61 64.7797 76.22 64.4297 76.01C61.4297 74.21 59.6297 71.07 59.6297 67.62C59.6297 62.21 64.0397 57.8 69.4497 57.8C74.8597 57.8 79.2697 62.21 79.2697 67.62C79.2697 71.07 77.4797 74.21 74.4697 76.01C74.1297 76.22 73.9397 76.61 73.9897 77.01C74.0497 77.41 74.3297 77.73 74.7197 77.84C80.6797 79.45 85.6697 83.78 88.0697 89.42C88.2297 89.8 88.5997 90.03 88.9897 90.03C89.1197 90.03 89.2497 90 89.3797 89.95C89.8897 89.73 90.1197 89.15 89.9097 88.64C87.5397 83.06 82.8497 78.65 77.1697 76.53L77.1797 76.5Z" fill="#232B31"/>
<path d="M28.8799 25.4399H71.1199C71.6699 25.4399 72.1199 24.9899 72.1199 24.4399C72.1199 23.8899 71.6699 23.4399 71.1199 23.4399H28.8799C28.3299 23.4399 27.8799 23.8899 27.8799 24.4399C27.8799 24.9899 28.3299 25.4399 28.8799 25.4399Z" fill="#232B31"/>
<path d="M28.8799 36.5H71.1199C71.6699 36.5 72.1199 36.05 72.1199 35.5C72.1199 34.95 71.6699 34.5 71.1199 34.5H28.8799C28.3299 34.5 27.8799 34.95 27.8799 35.5C27.8799 36.05 28.3299 36.5 28.8799 36.5Z" fill="#232B31"/>
</svg>
