<svg width="100" height="100" viewBox="0 0 100 100" fill="none" xmlns="http://www.w3.org/2000/svg">
<g clip-path="url(#clip0_8984_5871)">
<path d="M39.9 88.3001C52.5 88.3001 62.8 78.0001 62.8 65.4001C62.8 56.2001 57.4 48.0001 48.9 44.4001V31.8H50.4C51 31.8 51.4 31.4 51.4 30.8C51.4 30.2 51 29.8 50.4 29.8H29.4C28.8 29.8 28.4 30.2 28.4 30.8C28.4 31.4 28.8 31.8 29.4 31.8H30.9V44.3C22.4 47.9 17 56.1 17 65.3C17 78 27.3 88.3001 39.9 88.3001ZM32.2 46C32.6 45.8 32.8 45.5 32.8 45.1V42.2001H37.6C38.2 42.2001 38.6 41.8001 38.6 41.2001C38.6 40.6 38.2 40.2001 37.6 40.2001H32.9V37.1H37.6C38.2 37.1 38.6 36.7 38.6 36.1C38.6 35.5001 38.2 35.1 37.6 35.1H32.9V31.8H46.9V45C46.9 45.4 47.2 45.8001 47.5 45.9001C55.5 49.1001 60.7 56.7 60.7 65.3C60.7 76.8 51.3 86.2 39.8 86.2C28.3 86.2 18.9 76.8 18.9 65.3C19 56.8 24.2 49.1 32.2 46Z" fill="#232B31"/>
<path d="M39.9 83.6001C49.7999 83.6001 57.9 75.5001 57.9 65.6001C57.9 63.5001 57.5 61.4001 56.7999 59.3001C56.7 58.9001 56.3 58.6001 55.9 58.6001H24C23.6 58.6001 23.2 58.9001 23.1 59.3001C22.3 61.3001 22 63.4001 22 65.6001C21.9 75.5001 29.9 83.6001 39.9 83.6001ZM24.7 60.7001H55.0999C55.5999 62.3001 55.9 64.0001 55.9 65.6001C55.9 74.4001 48.7 81.6001 39.9 81.6001C31.0999 81.6001 23.9 74.4001 23.9 65.6001C23.9 64.0001 24.1 62.3001 24.7 60.7001Z" fill="#232B31"/>
<path d="M38.7998 15.5C38.7998 18 40.7998 20 43.2998 20C45.7998 20 47.7998 18 47.7998 15.5C47.7998 13 45.7998 11 43.2998 11C40.7998 11 38.7998 13 38.7998 15.5ZM45.8998 15.5C45.8998 16.9 44.7998 18 43.3998 18C41.9998 18 40.8998 16.9 40.8998 15.5C40.8998 14.1 41.9998 13 43.3998 13C44.6998 13 45.8998 14.1 45.8998 15.5Z" fill="#232B31"/>
<path d="M83.7998 16.8C83.7998 14.3 81.7998 12.3 79.2998 12.3C76.7998 12.3 74.7998 14.3 74.7998 16.8C74.7998 19.3 76.7998 21.3 79.2998 21.3C81.7998 21.3 83.7998 19.3 83.7998 16.8ZM76.7998 16.8C76.7998 15.4 77.8998 14.3 79.2998 14.3C80.6998 14.3 81.7998 15.4 81.7998 16.8C81.7998 18.2 80.6998 19.3 79.2998 19.3C77.8998 19.3 76.7998 18.2 76.7998 16.8Z" fill="#232B31"/>
<path d="M29.0996 22.8999C29.0996 25.3999 31.0996 27.3999 33.5996 27.3999C36.0996 27.3999 38.0996 25.3999 38.0996 22.8999C38.0996 20.3999 36.0996 18.3999 33.5996 18.3999C31.0996 18.3999 29.0996 20.3999 29.0996 22.8999ZM36.0996 22.8999C36.0996 24.2999 34.9996 25.3999 33.5996 25.3999C32.1996 25.3999 31.0996 24.2999 31.0996 22.8999C31.0996 21.4999 32.1996 20.3999 33.5996 20.3999C34.9996 20.3999 36.0996 21.4999 36.0996 22.8999Z" fill="#232B31"/>
<path d="M58.9002 15.4999C58.9002 13.4999 57.3002 11.8999 55.3002 11.8999C53.3002 11.8999 51.7002 13.4999 51.7002 15.4999C51.7002 17.4999 53.3002 19.0999 55.3002 19.0999C57.3002 19.0999 58.9002 17.4999 58.9002 15.4999ZM53.7002 15.4999C53.7002 14.5999 54.4002 13.8999 55.3002 13.8999C56.2002 13.8999 56.9002 14.5999 56.9002 15.4999C56.9002 16.3999 56.2002 17.0999 55.3002 17.0999C54.4002 17.0999 53.7002 16.3999 53.7002 15.4999Z" fill="#232B31"/>
<path d="M24.8002 20C26.8002 20 28.4002 18.4 28.4002 16.4C28.4002 14.4 26.8002 12.8 24.8002 12.8C22.8002 12.8 21.2002 14.4 21.2002 16.4C21.3002 18.4 22.9002 20 24.8002 20ZM24.8002 14.9C25.7002 14.9 26.4002 15.6 26.4002 16.5C26.4002 17.4 25.7002 18.1 24.8002 18.1C23.9002 18.1 23.2002 17.4 23.2002 16.5C23.3002 15.6 24.0002 14.9 24.8002 14.9Z" fill="#232B31"/>
<path d="M56.1996 30.4C58.4996 30.4 60.2996 28.5 60.2996 26.3C60.2996 24.1 58.3996 22.2 56.1996 22.2C53.9996 22.2 52.0996 24.1 52.0996 26.3C52.0996 28.5 53.8996 30.4 56.1996 30.4ZM56.1996 24.1C57.3996 24.1 58.2996 25.1 58.2996 26.2C58.2996 27.4 57.2996 28.3 56.1996 28.3C55.0996 28.3 54.0996 27.3 54.0996 26.2C53.9996 25.1 54.9996 24.1 56.1996 24.1Z" fill="#232B31"/>
<path d="M67.3002 14C65.0002 14 63.2002 15.9 63.2002 18.1C63.2002 20.3 65.1002 22.2 67.3002 22.2C69.5002 22.2 71.4002 20.3 71.4002 18.1C71.4002 15.9 69.6002 14 67.3002 14ZM67.3002 20.3C66.1002 20.3 65.2002 19.3 65.2002 18.2C65.2002 17 66.2002 16.1 67.3002 16.1C68.5002 16.1 69.4002 17.1 69.4002 18.2C69.5002 19.3 68.5002 20.3 67.3002 20.3Z" fill="#232B31"/>
<path d="M64.2002 25.2C64.2002 25.8 64.6002 26.2 65.2002 26.2H66.4002V80.6999C66.4002 84.8999 69.8002 88.2 73.9002 88.3C78.0002 88.3 81.4002 84.8999 81.4002 80.6999V26.2H82.6002C83.2002 26.2 83.6002 25.8 83.6002 25.2C83.6002 24.6 83.2002 24.2 82.6002 24.2H65.2002C64.6002 24.2 64.2002 24.6 64.2002 25.2ZM79.4002 37H75.8002C75.2002 37 74.8002 37.4 74.8002 38C74.8002 38.6 75.2002 39 75.8002 39H79.4002V41.5H75.8002C75.2002 41.5 74.8002 41.9 74.8002 42.5C74.8002 43.1 75.2002 43.5 75.8002 43.5H79.4002V46H75.8002C75.2002 46 74.8002 46.4 74.8002 47C74.8002 47.6 75.2002 48 75.8002 48H79.4002V50.4H75.8002C75.2002 50.4 74.8002 50.8 74.8002 51.4C74.8002 52 75.2002 52.4 75.8002 52.4H79.4002V54.7999H75.8002C75.2002 54.7999 74.8002 55.1999 74.8002 55.7999C74.8002 56.3999 75.2002 56.7999 75.8002 56.7999H79.4002V59.2H75.8002C75.2002 59.2 74.8002 59.6 74.8002 60.2C74.8002 60.7999 75.2002 61.2 75.8002 61.2H79.4002V63.5999H75.8002C75.2002 63.5999 74.8002 64 74.8002 64.5999C74.8002 65.1999 75.2002 65.5999 75.8002 65.5999H79.4002V67.7999H75.8002C75.2002 67.7999 74.8002 68.2 74.8002 68.7999C74.8002 69.3999 75.2002 69.7999 75.8002 69.7999H79.4002V80.6999C79.4002 83.7999 76.9002 86.3 73.9002 86.3C70.9002 86.3 68.4002 83.7999 68.4002 80.6999V26.2H79.5002V37H79.4002Z" fill="#232B31"/>
</g>
<defs>
<clipPath id="clip0_8984_5871">
<rect width="66.8" height="77.3" fill="white" transform="translate(17 11)"/>
</clipPath>
</defs>
</svg>
