<svg width="100" height="100" viewBox="0 0 100 100" fill="none" xmlns="http://www.w3.org/2000/svg">
<path d="M50 10C27.9442 10 10 27.9442 10 50C10 72.0558 27.9442 90 50 90C72.0558 90 90 72.0558 90 50C90 27.9442 72.0558 10 50 10ZM85.7575 37.145C83.446 38.285 76.4908 40.9028 70.1442 35.1131C67.9879 33.1457 65.7174 32.8914 63.7145 32.6668C61.0192 32.3644 58.8913 32.1258 57.2106 27.8387C54.6175 21.2208 64.0371 16.2378 65.7114 15.4137C74.9864 19.6438 82.2756 27.4895 85.7573 37.1453L85.7575 37.145ZM38.3042 13.85C39.5438 14.8295 44.3113 18.849 44.9731 23.2192C45.2309 24.9168 44.8403 26.4366 43.7807 27.864C38.2757 35.2781 37.1674 37.3707 36.8227 44.7073C36.5606 50.317 35.8337 65.1573 14.9385 64.6423C13.0485 60.1333 12.0007 55.1865 12.0007 49.9998C12.0007 33.1273 23.0582 18.7948 38.304 13.8498L38.3042 13.85ZM50.0008 88C44.0881 88 38.4875 86.6416 33.4917 84.222C44.58 81.9085 47.87 69.4587 48.7892 63.8678C49.2911 60.8223 50.2023 58.1081 51.4972 55.8011C53.2491 52.6774 55.336 50.597 57.6993 49.6172C69.6768 44.653 85.7543 51.4883 87.9118 52.4551C86.641 72.2668 70.1277 88.0001 49.9993 88.0001L50.0008 88ZM87.9933 50.3033C83.9341 48.5634 68.8667 42.8225 56.935 47.7698C54.1469 48.9261 51.7309 51.2992 49.7543 54.8233C48.3452 57.334 47.3568 60.2676 46.8178 63.5433C44.173 79.6091 35.4903 82.3816 30.4812 82.5883C24.2009 78.8123 19.097 73.2733 15.8578 66.6608C15.9054 66.6608 15.9555 66.663 16.003 66.663C37.7947 66.6611 38.5664 50.2697 38.8222 44.8014C39.1445 37.9342 40.0283 36.2747 45.3876 29.0564C46.7636 27.2035 47.2899 25.1368 46.952 22.9138C46.3101 18.6914 42.6831 14.9824 40.62 13.1738C43.6219 12.4088 46.7649 11.9996 50.0017 11.9996C54.6869 11.9996 59.1742 12.8574 63.3217 14.4149C59.7787 16.4394 52.6008 21.5546 55.35 28.5674C57.4701 33.9786 60.6693 34.3369 63.4916 34.6534C65.3578 34.863 67.1205 35.0606 68.7973 36.5899C72.101 39.6042 75.7543 40.7516 79.1848 40.7516C81.8013 40.7513 84.2879 40.083 86.3909 39.0667C87.4339 42.5312 88.0012 46.1995 88.0012 49.9992C88.0012 50.1008 87.9943 50.2007 87.9934 50.3023L87.9933 50.3033Z" fill="#232B31"/>
</svg>
